HIERARCHY
ROOT Hips
{
    OFFSET   0.000000   0.000000   0.000000
    CHANNELS 6 Xposition Yposition Zposition Zrotation Xrotation Yrotation
    JOINT Chest
    {
        OFFSET   0.000000   8.007230   0.000000
        CHANNELS 3 Zrotation Xrotation Yrotation
        JOINT Chest2
        {
            OFFSET   0.000000  22.077100   0.000000
            CHANNELS 3 Zrotation Xrotation Yrotation
            JOINT Neck
            {
                OFFSET   0.000000  23.254700   0.000000
                CHANNELS 3 Zrotation Xrotation Yrotation
                JOINT Head
                {
                    OFFSET   0.000010  14.370000   1.956610
                    CHANNELS 3 Zrotation Xrotation Yrotation
                    End Site
                    {
                        OFFSET   0.000000  19.566000   0.000000
                    }
                }
            }
            JOINT LeftCollar
            {
                OFFSET   3.911900  19.017000  -0.467063
                CHANNELS 3 Zrotation Xrotation Yrotation
                JOINT LeftShoulder
                {
                    OFFSET  10.383700   0.000000   0.000000
                    CHANNELS 3 Zrotation Xrotation Yrotation
                    JOINT LeftElbow
                    {
                        OFFSET  26.662100   0.001671   0.000522
                        CHANNELS 3 Zrotation Xrotation Yrotation
                        JOINT LeftWrist
                        {
                            OFFSET  28.869000   0.000037  -0.000114
                            CHANNELS 3 Zrotation Xrotation Yrotation
                            JOINT LeftFinger0
                            {
                                OFFSET   2.044650  -2.323450   3.252850
                                CHANNELS 3 Zrotation Xrotation Yrotation
                                JOINT LeftFinger01
                                {
                                    OFFSET   3.088140   0.000000   0.000000
                                    CHANNELS 3 Zrotation Xrotation Yrotation
                                    JOINT LeftFinger02
                                    {
                                        OFFSET   2.639460   0.000000   0.000000
                                        CHANNELS 3 Zrotation Xrotation Yrotation
                                        End Site
                                        {
                                            OFFSET   2.582190   0.000000   0.000000
                                        }
                                    }
                                }
                            }
                            JOINT LeftFinger1
                            {
                                OFFSET   8.364480   0.000000   3.252850
                                CHANNELS 3 Zrotation Xrotation Yrotation
                                JOINT LeftFinger11
                                {
                                    OFFSET   4.646930   0.000000   0.000000
                                    CHANNELS 3 Zrotation Xrotation Yrotation
                                    JOINT LeftFinger12
                                    {
                                        OFFSET   2.323470   0.000000   0.000000
                                        CHANNELS 3 Zrotation Xrotation Yrotation
                                        End Site
                                        {
                                            OFFSET   2.273050   0.000000   0.000000
                                        }
                                    }
                                }
                            }
                            JOINT LeftFinger2
                            {
                                OFFSET   8.364490   0.000016   1.078090
                                CHANNELS 3 Zrotation Xrotation Yrotation
                                JOINT LeftFinger21
                                {
                                    OFFSET   5.111620   0.000000   0.000000
                                    CHANNELS 3 Zrotation Xrotation Yrotation
                                    JOINT LeftFinger22
                                    {
                                        OFFSET   2.788150   0.000013   0.000000
                                        CHANNELS 3 Zrotation Xrotation Yrotation
                                        End Site
                                        {
                                            OFFSET   2.727660   0.000000   0.000000
                                        }
                                    }
                                }
                            }
                            JOINT LeftFinger3
                            {
                                OFFSET   7.899780   0.000016  -1.078090
                                CHANNELS 3 Zrotation Xrotation Yrotation
                                JOINT LeftFinger31
                                {
                                    OFFSET   4.646930   0.000000   0.000000
                                    CHANNELS 3 Zrotation Xrotation Yrotation
                                    JOINT LeftFinger32
                                    {
                                        OFFSET   2.323470   0.000000   0.000000
                                        CHANNELS 3 Zrotation Xrotation Yrotation
                                        End Site
                                        {
                                            OFFSET   2.273050   0.000000   0.000000
                                        }
                                    }
                                }
                            }
                            JOINT LeftFinger4
                            {
                                OFFSET   7.435080   0.000000  -3.252850
                                CHANNELS 3 Zrotation Xrotation Yrotation
                                JOINT LeftFinger41
                                {
                                    OFFSET   3.717550   0.000000   0.000000
                                    CHANNELS 3 Zrotation Xrotation Yrotation
                                    JOINT LeftFinger42
                                    {
                                        OFFSET   1.858760   0.000000   0.000000
                                        CHANNELS 3 Zrotation Xrotation Yrotation
                                        End Site
                                        {
                                            OFFSET   1.818440   0.000000   0.000000
                                        }
                                    }
                                }
                            }
                        }
                    }
                }
            }
            JOINT RightCollar
            {
                OFFSET  -3.911900  19.017000  -0.467064
                CHANNELS 3 Zrotation Xrotation Yrotation
                JOINT RightShoulder
                {
                    OFFSET -10.383700   0.000000   0.000000
                    CHANNELS 3 Zrotation Xrotation Yrotation
                    JOINT RightElbow
                    {
                        OFFSET -26.662100   0.001633   0.000260
                        CHANNELS 3 Zrotation Xrotation Yrotation
                        JOINT RightWrist
                        {
                            OFFSET -28.869000  -0.000045  -0.000080
                            CHANNELS 3 Zrotation Xrotation Yrotation
                            JOINT RightFinger0
                            {
                                OFFSET  -2.044660  -2.323490   3.252850
                                CHANNELS 3 Zrotation Xrotation Yrotation
                                JOINT RightFinger01
                                {
                                    OFFSET  -3.088140   0.000000   0.000000
                                    CHANNELS 3 Zrotation Xrotation Yrotation
                                    JOINT RightFinger02
                                    {
                                        OFFSET  -2.639450   0.000000   0.000000
                                        CHANNELS 3 Zrotation Xrotation Yrotation
                                        End Site
                                        {
                                            OFFSET  -2.582190   0.000000   0.000000
                                        }
                                    }
                                }
                            }
                            JOINT RightFinger1
                            {
                                OFFSET  -8.364480   0.000000   3.252850
                                CHANNELS 3 Zrotation Xrotation Yrotation
                                JOINT RightFinger11
                                {
                                    OFFSET  -4.646920   0.000000   0.000000
                                    CHANNELS 3 Zrotation Xrotation Yrotation
                                    JOINT RightFinger12
                                    {
                                        OFFSET  -2.323470   0.000000   0.000000
                                        CHANNELS 3 Zrotation Xrotation Yrotation
                                        End Site
                                        {
                                            OFFSET  -2.273050   0.000000   0.000000
                                        }
                                    }
                                }
                            }
                            JOINT RightFinger2
                            {
                                OFFSET  -8.364480   0.000000   1.078090
                                CHANNELS 3 Zrotation Xrotation Yrotation
                                JOINT RightFinger21
                                {
                                    OFFSET  -5.111610   0.000000   0.000000
                                    CHANNELS 3 Zrotation Xrotation Yrotation
                                    JOINT RightFinger22
                                    {
                                        OFFSET  -2.788160   0.000000   0.000000
                                        CHANNELS 3 Zrotation Xrotation Yrotation
                                        End Site
                                        {
                                            OFFSET  -2.727660   0.000000   0.000000
                                        }
                                    }
                                }
                            }
                            JOINT RightFinger3
                            {
                                OFFSET  -7.899780   0.000000  -1.078090
                                CHANNELS 3 Zrotation Xrotation Yrotation
                                JOINT RightFinger31
                                {
                                    OFFSET  -4.646930   0.000000   0.000000
                                    CHANNELS 3 Zrotation Xrotation Yrotation
                                    JOINT RightFinger32
                                    {
                                        OFFSET  -2.323470   0.000000   0.000000
                                        CHANNELS 3 Zrotation Xrotation Yrotation
                                        End Site
                                        {
                                            OFFSET  -2.273050   0.000000   0.000000
                                        }
                                    }
                                }
                            }
                            JOINT RightFinger4
                            {
                                OFFSET  -7.435090   0.000000  -3.252850
                                CHANNELS 3 Zrotation Xrotation Yrotation
                                JOINT RightFinger41
                                {
                                    OFFSET  -3.717550   0.000000   0.000000
                                    CHANNELS 3 Zrotation Xrotation Yrotation
                                    JOINT RightFinger42
                                    {
                                        OFFSET  -1.858760   0.000000   0.000000
                                        CHANNELS 3 Zrotation Xrotation Yrotation
                                        End Site
                                        {
                                            OFFSET  -1.818440   0.000000   0.000000
                                        }
                                    }
                                }
                            }
                        }
                    }
                }
            }
        }
    }
    JOINT LeftHip
    {
        OFFSET   9.782990   0.000000   0.000000
        CHANNELS 3 Zrotation Xrotation Yrotation
        JOINT LeftKnee
        {
            OFFSET  -0.000063 -41.789100   0.001657
            CHANNELS 3 Zrotation Xrotation Yrotation
            JOINT LeftAnkle
            {
                OFFSET   0.000078 -41.133200  -0.000113
                CHANNELS 3 Zrotation Xrotation Yrotation
                JOINT LeftToe
                {
                    OFFSET   0.000000  -6.358970  14.674500
                    CHANNELS 3 Zrotation Xrotation Yrotation
                    End Site
                    {
                        OFFSET   0.000000   0.000000   3.913200
                    }
                }
            }
        }
    }
    JOINT RightHip
    {
        OFFSET  -9.782990   0.000000   0.000000
        CHANNELS 3 Zrotation Xrotation Yrotation
        JOINT RightKnee
        {
            OFFSET   0.000053 -41.789200   0.000277
            CHANNELS 3 Zrotation Xrotation Yrotation
            JOINT RightAnkle
            {
                OFFSET   0.000030 -41.133200  -0.000150
                CHANNELS 3 Zrotation Xrotation Yrotation
                JOINT RightToe
                {
                    OFFSET   0.000000  -6.358960  14.674500
                    CHANNELS 3 Zrotation Xrotation Yrotation
                    End Site
                    {
                        OFFSET   0.000000   0.000000   3.913200
                    }
                }
            }
        }
    }
}
MOTION
Frames: 6
Frame Time:   0.016667
  0.240542  89.549800   0.006150  -2.036010  -4.506830  -0.430640   0.559261   1.587930  -0.135994   1.122930   3.174440  -0.287663   0.344414   0.648034  -0.015678   0.567681   1.320840   1.601520  -1.210350  -2.089570   1.316540 -81.020100  11.586600   2.428540  -1.372000  -4.258820 -10.932100  10.404900  -2.679910   1.829850  35.720700  22.103100 -58.048600 -28.375800   0.000729   0.008874  -9.187910  -0.000137  -0.001055 -17.363000   2.309320  -7.342880 -14.327300  -0.001360   0.000331 -10.029100   0.000000  -0.006045 -21.473400   0.442619  -1.124910 -21.477700  -0.008122  -0.001993 -14.310800  -0.004239  -0.009778 -19.608900   0.405729  -1.138730 -19.612900   0.002752   0.002242 -13.062200   0.006020   0.001920 -20.527800   0.111482  -0.297723 -30.792100   0.000706  -0.001209 -20.507600   0.004260   0.002587   5.597710   0.524983   4.119130  75.448700   2.183330  -3.768150   0.572974 -10.337900   6.142750  -7.840620  -2.917460   0.056536 -44.446600  39.622700  82.191700  19.936900   0.005397  -0.010846   4.968430   0.000702  -0.005790  20.559500   3.519360   9.294840  17.055600   0.000215   0.007858  11.938900  -0.012640   0.003370  27.137900   3.077950   5.982540  28.224100  -0.001129  -0.001037  18.797300   0.002806   0.007231  23.292000   1.402310   3.248390  23.331800   0.009411  -0.000251  15.539000   0.006807   0.006121  27.330400   0.704408   1.353930  41.008200   0.000088   0.000000  27.311500   0.000088   0.003541   1.913290   7.141330   3.135480   1.104620   0.006148   3.515970  -2.902480  -3.121360  -1.208290   0.000000   0.000000   0.000000   1.819190   6.587930   0.383805  -0.551381   1.665820  -5.561720   0.770131  -4.354640  -0.115234  -0.000000   0.000000   0.000000
  0.240832  89.549800   0.002800  -2.036330  -4.508630  -0.434817   0.559306   1.594790  -0.136615   1.123070   3.188160  -0.288974   0.344217   0.648003  -0.015661   0.567365   1.319770   1.602070  -1.210400  -2.089610   1.316710 -81.009500  11.586600   2.428990  -1.382550  -4.271470 -10.935700  10.392900  -2.672330   1.822150  35.723800  22.114800 -58.112700 -28.354600   0.000745   0.008884  -9.177300  -0.000135  -0.001056 -17.405200   2.339290  -7.414220 -14.364800  -0.001365   0.000329 -10.055400  -0.000031  -0.006043 -21.482100   0.469071  -1.191630 -21.487000  -0.008104  -0.001969 -14.310700  -0.004240  -0.009763 -19.596100   0.429553  -1.206440 -19.600600   0.002741   0.002243 -13.054000   0.006019   0.001920 -20.520400   0.117564  -0.314095 -30.781100   0.000699  -0.001206 -20.500200   0.004260   0.002580   5.597500   0.525071   4.112150  75.448100   2.170420  -3.774740   0.585669 -10.327600   6.142580  -7.844530  -2.911410   0.069806 -44.463600  39.623600  82.192100  19.934700   0.005397  -0.010846   4.967370   0.000706  -0.005776  20.568600   3.514130   9.275930  17.062100   0.000217   0.007855  11.943500  -0.012643   0.003370  27.139000   3.073330   5.972280  28.243300  -0.001135  -0.001042  18.810100   0.002800   0.007225  23.297400   1.396910   3.237610  23.337000   0.009411  -0.000257  15.542400   0.006803   0.006121  27.328900   0.704407   1.355050  41.005900   0.000044  -0.000000  27.310000   0.000092   0.003526   1.913430   7.136390   3.135480   1.104480   0.018159   3.515940  -2.902550  -3.124800  -1.204910   0.000000   0.000000   0.000000   1.819120   6.589270   0.383807  -0.549157   1.659080  -5.554770   0.767297  -4.348380  -0.118164  -0.000000   0.000000   0.000000
  0.241121  89.549800  -0.003999  -2.036910  -4.512640  -0.442212   0.559391   1.606890  -0.138188   1.123310   3.212330  -0.292244   0.344020   0.647971  -0.015639   0.567031   1.317950   1.602610  -1.210450  -2.089880   1.316950 -80.993300  11.586600   2.429440  -1.399630  -4.289040 -10.941700  10.380500  -2.661820   1.807710  35.727000  22.126400 -58.176900 -28.324800   0.000775   0.008904  -9.162410  -0.000134  -0.001057 -17.464700   2.369240  -7.485560 -14.416100  -0.001375   0.000328 -10.091300  -0.000086  -0.006041 -21.490800   0.495522  -1.258350 -21.496300  -0.008058  -0.001920 -14.310600  -0.004244  -0.009724 -19.583200   0.453375  -1.274150 -19.588200   0.002711   0.002244 -13.045800   0.006018   0.001920 -20.513000   0.123647  -0.330467 -30.770000   0.000677  -0.001195 -20.492800   0.004260   0.002561   5.597290   0.525256   4.105170  75.447200   2.152310  -3.782340   0.605437 -10.317200   6.142410  -7.854780  -2.904690   0.088724 -44.485400  39.629700  82.194700  19.932500   0.005396  -0.010846   4.966300   0.000715  -0.005751  20.581800   3.508890   9.257010  17.072100   0.000223   0.007848  11.950500  -0.012647   0.003368  27.140000   3.068720   5.962030  28.267700  -0.001150  -0.001056  18.826300   0.002784   0.007213  23.302900   1.391500   3.226840  23.342100   0.009409  -0.000273  15.545800   0.006792   0.006122  27.327400   0.704404   1.362900  41.003600   0.000000   0.000000  27.308500   0.000095   0.003511   1.913860   7.126050   3.135500   1.104270   0.041620   3.515730  -2.902710  -3.131050  -1.197700   0.000000   0.000000   0.000000   1.818920   6.590610   0.383808  -0.542822   1.647810  -5.547810   0.760347  -4.335960  -0.121093   0.000000   0.000000   0.000000
  0.239578  89.549700  -0.012149  -2.037440  -4.518250  -0.449062   0.559460   1.617940  -0.140864   1.123570   3.234440  -0.297711   0.344070   0.648229  -0.015633   0.567096   1.316470   1.599540  -1.208110  -2.092640   1.317040 -80.983100  11.589200   2.426650  -1.412440  -4.294360 -10.947900  10.383700  -2.657690   1.792260  35.746500  22.119300 -58.102200 -28.315400   0.000810   0.008929  -9.157720  -0.000138  -0.001061 -17.484100   2.365030  -7.467610 -14.431200  -0.001385   0.000328 -10.101800  -0.000136  -0.006041 -21.486900   0.480537  -1.220560 -21.492000  -0.007986  -0.001857 -14.310600  -0.004252  -0.009666 -19.593800   0.439999  -1.235750 -19.598600   0.002667   0.002245 -13.052700   0.006017   0.001919 -20.517900   0.118630  -0.318271 -30.777300   0.000641  -0.001177 -20.497700   0.004261   0.002531   5.597280   0.525551   4.111640  75.447600   2.144450  -3.783380   0.616898 -10.317500   6.139310  -7.871590  -2.904250   0.095794 -44.485400  39.648500  82.221100  19.952900   0.005369  -0.010864   4.976460   0.000725  -0.005733  20.589900   3.509470   9.257660  17.078900   0.000235   0.007838  11.955200  -0.012650   0.003362  27.138700   3.074960   5.974080  28.272400  -0.001171  -0.001077  18.829300   0.002759   0.007198  23.283300   1.400840   3.251190  23.322900   0.009402  -0.000299  15.533100   0.006773   0.006122  27.327100   0.712446   1.382060  41.003800   0.000000   0.000000  27.308600   0.000019   0.003521   1.914800   7.109430   3.135520   1.104140   0.075410   3.513530  -2.902840  -3.138840  -1.188270   0.000000   0.000000   0.000000   1.818520   6.589810   0.383689  -0.531539   1.638600  -5.549490   0.749607  -4.321180  -0.114826   0.000000   0.000000   0.000000
  0.236170  89.549600  -0.021452  -2.038020  -4.524470  -0.456373   0.559534   1.629770  -0.143615   1.123840   3.258070  -0.303337   0.344416   0.648487  -0.015629   0.567304   1.314880   1.592120  -1.203040  -2.096530   1.317060 -80.973900  11.597700   2.420500  -1.424180  -4.298170 -10.951600  10.387200  -2.656500   1.775800  35.766100  22.112000 -58.027500 -28.307300   0.000853   0.008958  -9.153660  -0.000146  -0.001063 -17.492500   2.358760  -7.440270 -14.437500  -0.001398   0.000328 -10.106200  -0.000196  -0.006041 -21.482900   0.465552  -1.182770 -21.487700  -0.007900  -0.001793 -14.310800  -0.004262  -0.009596 -19.608700   0.426623  -1.197360 -19.613200   0.002608   0.002246 -13.062400   0.006017   0.001919 -20.524600   0.112411  -0.300270 -30.787400   0.000593  -0.001153 -20.504400   0.004263   0.002492   5.597640   0.525748   4.121310  75.448600   2.141780  -3.783690   0.625862 -10.317800   6.134120  -7.891380  -2.903800   0.101724 -44.486300  39.670800  82.256900  19.973200   0.005331  -0.010881   4.986620   0.000737  -0.005709  20.596000   3.513520   9.262190  17.084200   0.000250   0.007824  11.958900  -0.012654   0.003355  27.136000   3.088180   5.999630  28.274600  -0.001199  -0.001105  18.830800   0.002727   0.007179  23.263000   1.416750   3.291550  23.303700   0.009392  -0.000333  15.520300   0.006749   0.006123  27.327600   0.727774   1.408030  41.004900   0.000000   0.000000  27.309300  -0.000088   0.003548   1.915690   7.098200   3.135590   1.104090   0.097750   3.511510  -2.903100  -3.143830  -1.177580  -0.000000   0.000000  -0.000000   1.818100   6.588590   0.383424  -0.518809   1.629690  -5.551170   0.737745  -4.305320  -0.107873   0.000000   0.000000   0.000000
  0.231516  89.549500  -0.030835  -2.038640  -4.529310  -0.463877   0.559622   1.641750  -0.145528   1.124120   3.282020  -0.307323   0.347947   0.648460  -0.015620   0.572326   1.313780   1.581660  -1.196410  -2.099320   1.316390 -80.965200  11.613500   2.412550  -1.434280  -4.305160 -10.948200  10.387200  -2.668970   1.761200  35.756600  22.115500 -58.097600 -28.290600   0.000909   0.008991  -9.145330  -0.000159  -0.001056 -17.506100   2.354730  -7.420670 -14.448200  -0.001418   0.000328 -10.113700  -0.000274  -0.006041 -21.491200   0.474913  -1.205960 -21.496200  -0.007813  -0.001743 -14.316500  -0.004275  -0.009522 -19.615200   0.435154  -1.220860 -19.619700   0.002538   0.002246 -13.066800   0.006014   0.001917 -20.527300   0.111040  -0.289239 -30.791500   0.000534  -0.001124 -20.507100   0.004267   0.002445   5.601240   0.523147   4.127610  75.449700   2.142240  -3.784290   0.632892 -10.312000   6.130150  -7.910220  -2.892110   0.112970 -44.509800  39.688300  82.278200  19.969600   0.005313  -0.010871   4.984790   0.000753  -0.005669  20.595200   3.526610   9.295480  17.085600   0.000266   0.007807  11.959900  -0.012662   0.003347  27.132000   3.107040   6.036020  28.283500  -0.001237  -0.001139  18.836800   0.002689   0.007156  23.262800   1.433700   3.331190  23.304700   0.009380  -0.000377  15.521000   0.006722   0.006126  27.357600   0.745759   1.440700  41.050400  -0.000064  -0.000056  27.339600  -0.000119   0.003595   1.918550   7.116700   3.135850   1.104140   0.051835   3.511600  -2.903000  -3.117510  -1.166710  -0.000000   0.000000   0.000000   1.817790   6.587680   0.382957  -0.508514   1.622310  -5.542870   0.727802  -4.291730  -0.107156  -0.000000   0.000000  -0.000000
